<svg width="1600" height="980" viewBox="0 0 1600 980" fill="none" xmlns="http://www.w3.org/2000/svg">
  <rect width="1600" height="980" fill="url(#paint0_linear)"/>
  <rect width="1600" height="980" fill="url(#paint1_radial)"/>
  <path d="M0 278C162 234 330 216 502 226C689 238 847 290 1032 286C1226 281 1389 206 1600 222V980H0V278Z" fill="#5B6751" fill-opacity="0.52"/>
  <path d="M0 350C122 322 228 310 374 324C566 343 683 416 865 416C1041 416 1192 338 1376 346C1465 350 1533 366 1600 388V980H0V350Z" fill="#485544" fill-opacity="0.74"/>
  <path d="M0 485C122 453 273 440 434 462C620 488 730 571 904 577C1081 582 1198 509 1391 515C1468 517 1535 530 1600 548V980H0V485Z" fill="#304236"/>
  <path d="M0 611C113 588 242 589 350 611C474 637 580 716 727 721C869 727 980 654 1114 650C1251 647 1375 705 1600 710V980H0V611Z" fill="#26342C"/>
  <path d="M0 820C174 765 349 746 516 754C684 762 798 805 959 806C1136 808 1294 746 1600 758V980H0V820Z" fill="#1E2821"/>
  <g opacity="0.85">
    <rect x="322" y="557" width="66" height="52" fill="#D2C1B2"/>
    <path d="M312 561L355 530L399 561H312Z" fill="#7E5546"/>
    <rect x="421" y="581" width="84" height="58" fill="#CEC0B5"/>
    <path d="M409 586L463 548L517 586H409Z" fill="#764C3C"/>
    <rect x="545" y="562" width="90" height="65" fill="#D7C9BA"/>
    <path d="M531 568L590 525L651 568H531Z" fill="#6A4336"/>
    <rect x="677" y="596" width="76" height="57" fill="#CAB9AB"/>
    <path d="M665 600L714 566L765 600H665Z" fill="#87594A"/>
    <rect x="865" y="580" width="94" height="62" fill="#D4C5B7"/>
    <path d="M851 586L910 544L971 586H851Z" fill="#6B4436"/>
    <rect x="1000" y="609" width="78" height="58" fill="#CCBCAD"/>
    <path d="M988 613L1039 576L1092 613H988Z" fill="#7A4F40"/>
    <rect x="1135" y="579" width="85" height="65" fill="#D4C4B4"/>
    <path d="M1122 585L1177 544L1232 585H1122Z" fill="#6C4539"/>
  </g>
  <g opacity="0.72">
    <rect x="214" y="654" width="72" height="56" fill="#CCB9AB"/>
    <path d="M203 658L249 625L298 658H203Z" fill="#775143"/>
    <rect x="393" y="676" width="102" height="70" fill="#D2C1B1"/>
    <path d="M379 680L444 637L511 680H379Z" fill="#70483D"/>
    <rect x="594" y="665" width="80" height="62" fill="#C6B3A4"/>
    <path d="M582 670L634 633L688 670H582Z" fill="#6A453A"/>
    <rect x="780" y="674" width="96" height="68" fill="#D0C1B2"/>
    <path d="M765 679L827 636L890 679H765Z" fill="#7A5347"/>
    <rect x="978" y="661" width="87" height="64" fill="#CBB7A8"/>
    <path d="M965 666L1020 627L1078 666H965Z" fill="#6C463A"/>
    <rect x="1188" y="686" width="112" height="76" fill="#D3C3B2"/>
    <path d="M1172 691L1245 642L1318 691H1172Z" fill="#764E41"/>
  </g>
  <path d="M0 876H1600V980H0V876Z" fill="#0E8A39"/>
  <g opacity="0.95">
    <path d="M1458 95C1497 115 1510 149 1507 188C1471 173 1448 145 1458 95Z" fill="#678C2D"/>
    <path d="M1512 76C1552 102 1564 141 1557 187C1525 175 1497 140 1512 76Z" fill="#7EA32F"/>
    <path d="M1561 87C1595 113 1607 149 1600 188C1568 177 1545 148 1561 87Z" fill="#5F8E2C"/>
    <path d="M1497 184C1537 198 1573 232 1600 281V317C1540 306 1490 264 1497 184Z" fill="#739A31"/>
    <path d="M1452 201C1489 215 1516 249 1530 290C1485 286 1444 254 1452 201Z" fill="#88AD39"/>
  </g>
  <g opacity="0.68">
    <path d="M127 774C94 728 85 674 101 620C147 649 170 716 127 774Z" fill="#688E31"/>
    <path d="M91 781C56 747 37 699 42 650C84 672 112 724 91 781Z" fill="#80A437"/>
    <path d="M67 793C33 777 9 749 0 719V806C26 814 50 810 67 793Z" fill="#6A9835"/>
    <path d="M148 856C115 836 95 803 93 762C132 774 161 809 148 856Z" fill="#769E37"/>
  </g>
  <g opacity="0.46">
    <circle cx="943" cy="182" r="118" fill="#F2DFC0"/>
  </g>
  <defs>
    <linearGradient id="paint0_linear" x1="800" y1="0" x2="800" y2="980" gradientUnits="userSpaceOnUse">
      <stop stop-color="#CFBA92"/>
      <stop offset="0.42" stop-color="#87846A"/>
      <stop offset="1" stop-color="#2B342D"/>
    </linearGradient>
    <radialGradient id="paint1_radial" cx="0" cy="0" r="1" gradientUnits="userSpaceOnUse" gradientTransform="translate(790 146) rotate(90) scale(339 699.687)">
      <stop stop-color="#F3E4C7" stop-opacity="0.38"/>
      <stop offset="1" stop-color="#F3E4C7" stop-opacity="0"/>
    </radialGradient>
  </defs>
</svg>
